<svg width="273" height="185" viewBox="0 0 273 185" fill="none" xmlns="http://www.w3.org/2000/svg">
<path d="M54.8395 135.171C45.388 125.911 41.2321 111.779 44.4184 98.8742C44.5678 98.434 44.6857 97.9597 44.7564 97.6086C44.8586 97.247 44.9713 96.888 45.1364 96.4032C46.4911 93.1435 48.1446 89.3938 50.1622 84.9811L60.2034 63.62C60.7301 62.4959 61.0943 61.2827 61.3197 59.8127C61.3904 59.3227 61.4323 58.8353 61.4454 58.4239C61.4612 58.2457 61.4769 58.0597 61.4769 57.8762C61.4769 57.6719 61.4612 57.4753 61.4428 57.381C61.4219 56.9434 61.3747 56.5215 61.3144 56.1154C61.2568 55.7092 61.186 55.3109 61.0838 54.9179C60.9974 54.5903 60.9004 54.2733 60.7904 53.9798C60.6279 53.5029 60.4445 53.0522 60.2296 52.6041C60.1562 52.4652 60.0855 52.3263 59.9728 52.1272C57.8477 48.2491 53.8202 45.8462 49.4495 45.8462C42.8174 45.8462 37.4195 51.2415 37.4195 57.8762C37.4195 62.8837 40.577 67.3933 45.2989 69.128C45.9749 69.4477 46.6772 69.6992 47.382 69.8827L43.6061 77.9402C42.8279 77.6782 41.9789 77.3218 41.0303 76.8711C35.9285 74.4788 32.0713 70.2626 30.1559 64.9983C28.2483 59.7524 28.5024 54.0951 30.8738 49.0614C34.2751 41.824 41.7326 37.1493 49.8661 37.1493C52.9608 37.1493 55.9506 37.8201 58.7648 39.1408C69.1597 44.0303 73.6379 56.4744 68.751 66.8771L66.6521 71.3396C62.7478 79.6539 58.8068 88.0364 54.9732 96.1831C53.0394 100.302 52.1432 104.673 52.3109 109.151C52.4865 115.673 54.8448 121.944 58.8461 126.653L54.8395 135.171Z" fill="#D10A1C"/>
<path d="M47.3165 63.8921C44.7564 62.9803 43.027 60.5617 43.027 57.8758C43.027 54.3384 45.9094 51.4612 49.4495 51.4612C51.7632 51.4612 53.9093 52.7478 55.0491 54.8257L55.188 55.0852C55.3059 55.3157 55.3976 55.5542 55.4894 55.8267C55.547 55.9839 55.5968 56.149 55.644 56.3115C55.6885 56.5159 55.7252 56.7176 55.7619 56.9456C55.7959 57.1736 55.8221 57.4042 55.8274 57.5981C55.8326 57.7003 55.8431 57.7972 55.8536 57.902L55.8326 58.1719C55.8274 58.4523 55.8012 58.7274 55.7514 59.0628C55.623 59.8935 55.3714 60.5538 55.0753 61.1801L52.6856 66.35C52.6856 66.35 48.4066 64.4083 47.3165 63.8921Z" fill="#D10A1C"/>
<path d="M62.6292 118.589C59.2725 112.673 58.924 105.438 61.7802 99.3848C66.3606 89.6135 70.9514 79.8422 75.5527 70.0631C78.7312 63.3 79.0719 55.6302 76.5144 48.4714C73.9386 41.2812 68.7713 35.5583 61.9531 32.3563C58.1405 30.5613 54.0764 29.6521 49.876 29.6521C38.8417 29.6521 28.714 36.0248 24.076 45.8799C20.8975 52.6509 20.5752 60.3626 23.1589 67.5947C25.7714 74.8557 30.9544 80.6152 37.7673 83.812C38.6373 84.2261 39.523 84.5615 40.3667 84.8392L36.5384 92.9911C35.637 92.661 34.7408 92.2915 33.9547 91.922C15.4839 83.2434 7.18788 60.3757 15.8272 41.9939C21.9169 29.0284 35.2125 20.6512 49.7056 20.6512C55.2844 20.6512 60.6901 21.8618 65.7658 24.2515C84.3755 33.0009 92.399 55.266 83.6575 73.8835L62.6292 118.589Z" fill="#D10A1C"/>
<path d="M108.065 98.3411C107.056 100.513 105.68 102.492 104.016 104.171H79.0102L81.3292 99.2451C83.4622 101.074 86.2162 102.135 89.1221 102.135C95.7621 102.135 101.155 96.7401 101.155 90.1054C101.155 83.4707 95.7621 78.0754 89.1221 78.0754C86.8555 78.0754 84.6309 78.7278 82.849 79.8677L82.4848 80.0773C82.3381 80.1769 82.1939 80.2843 82.0655 80.3944C80.3256 81.6181 78.929 83.2977 78.0276 85.2394L69.1839 104.171H60.9403L74.7024 74.8995C78.6119 71.1943 83.8815 69.0745 89.2453 69.0745C92.1801 69.0745 95.0336 69.6955 97.7326 70.9139C102.798 73.2015 106.663 77.3364 108.612 82.5588C110.557 87.7654 110.357 93.3703 108.065 98.3411Z" fill="#D10A1C"/>
<path d="M80.6021 93.1515L83.1202 87.6069C83.6155 86.5378 84.3439 85.66 85.3475 84.9525L85.6986 84.6983C86.7441 84.038 87.9259 83.6868 89.1234 83.6868C92.6661 83.6868 95.5407 86.5666 95.5407 90.1067C95.5407 93.6415 92.6661 96.5213 89.1234 96.5213C89.1234 96.5213 88.0334 96.4636 85.586 95.4103C84.1736 94.805 80.6021 93.1515 80.6021 93.1515Z" fill="#D10A1C"/>
<path d="M123.848 104.17H113.419C113.951 103.292 114.436 102.391 114.86 101.463C118.005 94.6793 118.275 87.0384 115.633 79.9556C112.987 72.8413 107.728 67.2076 100.828 64.0868C94.3849 61.1756 86.9117 60.8742 80.2429 63.0989L84.7368 53.5425C91.6257 52.8586 98.6063 53.967 104.41 56.6712C122.36 65.0248 130.973 86.4462 123.848 104.17Z" fill="#D10A1C"/>
<path d="M119.184 72.4954C117.515 70.1319 115.657 67.9544 113.621 65.9786C116.16 63.733 117.714 60.4602 117.714 56.9725C117.714 50.3404 112.316 44.9372 105.684 44.9372C99.7879 44.9372 94.8695 49.2032 93.8449 54.8133C91.0962 54.0691 88.2557 53.5791 85.355 53.3485C85.4624 52.717 85.5856 52.1039 85.7428 51.5143C85.845 51.1474 85.9472 50.778 86.128 50.2356L86.204 50.0181C87.8522 45.4194 90.9232 41.6644 95.0896 39.1751C96.8845 38.0981 98.8288 37.3068 101.006 36.7853C101.599 36.6438 102.204 36.5311 102.806 36.4473L103.063 36.4132C103.64 36.3399 104.229 36.2927 104.793 36.2639L105.078 36.2586C105.652 36.2377 106.237 36.2455 106.808 36.2796L107.075 36.2953C107.644 36.332 108.207 36.3975 108.768 36.4787L109.116 36.5364C109.63 36.6229 110.141 36.7277 110.662 36.8561L111.199 36.9976C111.608 37.1129 112.02 37.236 112.407 37.3697C112.725 37.4823 113.042 37.6003 113.385 37.7365C113.626 37.8308 113.872 37.9357 114.098 38.0352C114.624 38.2684 115.14 38.52 115.746 38.8502C125.643 44.4158 129.178 56.9934 123.625 66.8853C122.352 69.1676 120.887 71.0228 119.184 72.4954Z" fill="#D10A1C"/>
<path d="M137.945 74.9031C135.058 80.0547 131.119 84.2945 126.206 87.5411C125.462 84.7216 124.445 81.9676 123.169 79.3079C128.979 74.6044 132.731 67.7024 133.59 59.9121C133.672 59.1286 133.729 58.3478 133.742 57.5826L133.753 56.9957C133.758 56.2856 133.735 55.5728 133.687 54.8522L133.645 54.3229C133.575 53.5552 133.483 52.79 133.355 52.0249L133.318 51.8231C132.731 48.4796 131.599 45.3613 129.956 42.5549C126.987 37.4951 122.53 33.5541 117.085 31.1669C116.839 31.0569 116.595 30.9573 116.189 30.7948C115.738 30.6166 115.293 30.4385 114.863 30.297C114.244 30.0821 113.626 29.8908 113.026 29.7283L112.596 29.6157C110.314 29.0235 107.961 28.7274 105.6 28.7274C95.4618 28.7274 86.0862 34.2327 81.1311 43.0947C80.3581 44.4757 79.7082 45.9038 79.1816 47.358C79.137 42.6807 78.3876 38.0139 76.9412 33.5174C83.9165 24.92 94.5761 19.8287 105.739 19.8287C112.015 19.8287 118.238 21.4533 123.733 24.5296C132.291 29.3196 138.488 37.2435 141.179 46.8418C143.867 56.4166 142.715 66.3818 137.945 74.9031Z" fill="#D10A1C"/>
<path d="M104.434 59.0993C106.205 60.0635 107.838 61.1431 109.316 62.2646C109.633 62.0419 109.942 61.8008 110.222 61.5205C112.73 59.0154 112.73 54.9512 110.222 52.441C107.715 49.9359 103.65 49.9359 101.143 52.441C99.9715 53.6201 99.3609 55.1399 99.2902 56.6859C100.949 57.3515 102.678 58.1428 104.434 59.0993Z" fill="#D10A1C"/>
<path d="M86.1514 172.984H86.0554C85.3034 174.52 84.0954 175.288 82.4314 175.288C81.6634 175.288 80.9674 175.136 80.3434 174.832C79.7194 174.528 79.1834 174.096 78.7354 173.536C78.3034 172.976 77.9674 172.296 77.7274 171.496C77.5034 170.696 77.3914 169.8 77.3914 168.808C77.3914 167.816 77.5034 166.92 77.7274 166.12C77.9674 165.32 78.3034 164.64 78.7354 164.08C79.1834 163.52 79.7194 163.088 80.3434 162.784C80.9674 162.48 81.6634 162.328 82.4314 162.328C83.2954 162.328 84.0314 162.52 84.6394 162.904C85.2634 163.272 85.7354 163.848 86.0554 164.632H86.1514V157.24H88.0714V175H86.1514V172.984ZM82.9594 173.56C83.3914 173.56 83.7994 173.504 84.1834 173.392C84.5834 173.28 84.9274 173.12 85.2154 172.912C85.5034 172.688 85.7274 172.424 85.8874 172.12C86.0634 171.8 86.1514 171.44 86.1514 171.04V166.432C86.1514 166.096 86.0634 165.784 85.8874 165.496C85.7274 165.192 85.5034 164.936 85.2154 164.728C84.9274 164.52 84.5834 164.36 84.1834 164.248C83.7994 164.12 83.3914 164.056 82.9594 164.056C81.8714 164.056 81.0154 164.4 80.3914 165.088C79.7674 165.76 79.4554 166.648 79.4554 167.752V169.864C79.4554 170.968 79.7674 171.864 80.3914 172.552C81.0154 173.224 81.8714 173.56 82.9594 173.56ZM93.1133 159.712C92.6973 159.712 92.3933 159.616 92.2013 159.424C92.0253 159.216 91.9373 158.952 91.9373 158.632V158.32C91.9373 158 92.0253 157.744 92.2013 157.552C92.3933 157.344 92.6973 157.24 93.1133 157.24C93.5293 157.24 93.8253 157.344 94.0013 157.552C94.1933 157.744 94.2893 158 94.2893 158.32V158.632C94.2893 158.952 94.1933 159.216 94.0013 159.424C93.8253 159.616 93.5293 159.712 93.1133 159.712ZM92.1533 162.616H94.0733V175H92.1533V162.616ZM101.873 175.288C100.721 175.288 99.7533 175.072 98.9693 174.64C98.2013 174.192 97.5373 173.6 96.9773 172.864L98.3453 171.76C98.8253 172.368 99.3613 172.84 99.9533 173.176C100.545 173.496 101.233 173.656 102.017 173.656C102.833 173.656 103.465 173.48 103.913 173.128C104.377 172.776 104.609 172.28 104.609 171.64C104.609 171.16 104.449 170.752 104.129 170.416C103.825 170.064 103.265 169.824 102.449 169.696L101.465 169.552C100.889 169.472 100.361 169.352 99.8813 169.192C99.4013 169.016 98.9773 168.792 98.6093 168.52C98.2573 168.232 97.9773 167.88 97.7693 167.464C97.5773 167.048 97.4813 166.552 97.4813 165.976C97.4813 165.368 97.5933 164.84 97.8173 164.392C98.0413 163.928 98.3453 163.544 98.7293 163.24C99.1293 162.936 99.6013 162.712 100.145 162.568C100.689 162.408 101.273 162.328 101.897 162.328C102.905 162.328 103.745 162.504 104.417 162.856C105.105 163.208 105.705 163.696 106.217 164.32L104.945 165.472C104.673 165.088 104.273 164.744 103.745 164.44C103.217 164.12 102.553 163.96 101.753 163.96C100.953 163.96 100.345 164.136 99.9293 164.488C99.5293 164.824 99.3293 165.288 99.3293 165.88C99.3293 166.488 99.5293 166.928 99.9293 167.2C100.345 167.472 100.937 167.672 101.705 167.8L102.665 167.944C104.041 168.152 105.017 168.552 105.593 169.144C106.169 169.72 106.457 170.48 106.457 171.424C106.457 172.624 106.049 173.568 105.233 174.256C104.417 174.944 103.297 175.288 101.873 175.288ZM113.428 175.288C112.276 175.288 111.308 175.072 110.524 174.64C109.756 174.192 109.092 173.6 108.532 172.864L109.9 171.76C110.38 172.368 110.916 172.84 111.508 173.176C112.1 173.496 112.788 173.656 113.572 173.656C114.388 173.656 115.02 173.48 115.468 173.128C115.932 172.776 116.164 172.28 116.164 171.64C116.164 171.16 116.004 170.752 115.684 170.416C115.38 170.064 114.82 169.824 114.004 169.696L113.02 169.552C112.444 169.472 111.916 169.352 111.436 169.192C110.956 169.016 110.532 168.792 110.164 168.52C109.812 168.232 109.532 167.88 109.324 167.464C109.132 167.048 109.036 166.552 109.036 165.976C109.036 165.368 109.148 164.84 109.372 164.392C109.596 163.928 109.9 163.544 110.284 163.24C110.684 162.936 111.156 162.712 111.7 162.568C112.244 162.408 112.828 162.328 113.452 162.328C114.46 162.328 115.3 162.504 115.972 162.856C116.66 163.208 117.26 163.696 117.772 164.32L116.5 165.472C116.228 165.088 115.828 164.744 115.3 164.44C114.772 164.12 114.108 163.96 113.308 163.96C112.508 163.96 111.9 164.136 111.484 164.488C111.084 164.824 110.884 165.288 110.884 165.88C110.884 166.488 111.084 166.928 111.484 167.2C111.9 167.472 112.492 167.672 113.26 167.8L114.22 167.944C115.596 168.152 116.572 168.552 117.148 169.144C117.724 169.72 118.012 170.48 118.012 171.424C118.012 172.624 117.604 173.568 116.788 174.256C115.972 174.944 114.852 175.288 113.428 175.288ZM126.059 175.288C125.211 175.288 124.443 175.136 123.755 174.832C123.083 174.528 122.499 174.096 122.003 173.536C121.523 172.96 121.147 172.28 120.875 171.496C120.619 170.696 120.491 169.8 120.491 168.808C120.491 167.832 120.619 166.944 120.875 166.144C121.147 165.344 121.523 164.664 122.003 164.104C122.499 163.528 123.083 163.088 123.755 162.784C124.443 162.48 125.211 162.328 126.059 162.328C126.891 162.328 127.635 162.48 128.291 162.784C128.947 163.088 129.507 163.512 129.971 164.056C130.435 164.584 130.787 165.216 131.027 165.952C131.283 166.688 131.411 167.496 131.411 168.376V169.288H122.507V169.864C122.507 170.392 122.587 170.888 122.747 171.352C122.923 171.8 123.163 172.192 123.467 172.528C123.787 172.864 124.171 173.128 124.619 173.32C125.083 173.512 125.603 173.608 126.179 173.608C126.963 173.608 127.643 173.424 128.219 173.056C128.811 172.688 129.267 172.16 129.587 171.472L130.955 172.456C130.555 173.304 129.931 173.992 129.083 174.52C128.235 175.032 127.227 175.288 126.059 175.288ZM126.059 163.936C125.531 163.936 125.051 164.032 124.619 164.224C124.187 164.4 123.811 164.656 123.491 164.992C123.187 165.328 122.947 165.728 122.771 166.192C122.595 166.64 122.507 167.136 122.507 167.68V167.848H129.347V167.584C129.347 166.48 129.043 165.6 128.435 164.944C127.843 164.272 127.051 163.936 126.059 163.936ZM134.575 175V162.616H136.495V164.632H136.591C136.895 163.928 137.319 163.368 137.863 162.952C138.423 162.536 139.167 162.328 140.095 162.328C141.375 162.328 142.383 162.744 143.119 163.576C143.871 164.392 144.247 165.552 144.247 167.056V175H142.327V167.392C142.327 165.168 141.391 164.056 139.519 164.056C139.135 164.056 138.759 164.104 138.391 164.2C138.039 164.296 137.719 164.44 137.431 164.632C137.143 164.824 136.911 165.072 136.735 165.376C136.575 165.664 136.495 166.008 136.495 166.408V175H134.575ZM155.66 162.616H157.556L152.012 177.88C151.868 178.248 151.724 178.552 151.58 178.792C151.436 179.048 151.26 179.248 151.052 179.392C150.844 179.536 150.58 179.64 150.26 179.704C149.956 179.768 149.58 179.8 149.132 179.8H148.148V178.12H150.092L151.028 175.48L146.396 162.616H148.316L151.292 171.04L151.868 173.056H151.988L152.66 171.04L155.66 162.616ZM166.637 159.712C166.221 159.712 165.917 159.616 165.725 159.424C165.549 159.216 165.461 158.952 165.461 158.632V158.32C165.461 158 165.549 157.744 165.725 157.552C165.917 157.344 166.221 157.24 166.637 157.24C167.053 157.24 167.349 157.344 167.525 157.552C167.717 157.744 167.813 158 167.813 158.32V158.632C167.813 158.952 167.717 159.216 167.525 159.424C167.349 159.616 167.053 159.712 166.637 159.712ZM165.677 162.616H167.597V175H165.677V162.616ZM185.269 172.984H185.173C184.421 174.52 183.213 175.288 181.549 175.288C180.781 175.288 180.085 175.136 179.461 174.832C178.837 174.528 178.301 174.096 177.853 173.536C177.421 172.976 177.085 172.296 176.845 171.496C176.621 170.696 176.509 169.8 176.509 168.808C176.509 167.816 176.621 166.92 176.845 166.12C177.085 165.32 177.421 164.64 177.853 164.08C178.301 163.52 178.837 163.088 179.461 162.784C180.085 162.48 180.781 162.328 181.549 162.328C182.413 162.328 183.149 162.52 183.757 162.904C184.381 163.272 184.853 163.848 185.173 164.632H185.269V157.24H187.189V175H185.269V172.984ZM182.077 173.56C182.509 173.56 182.917 173.504 183.301 173.392C183.701 173.28 184.045 173.12 184.333 172.912C184.621 172.688 184.845 172.424 185.005 172.12C185.181 171.8 185.269 171.44 185.269 171.04V166.432C185.269 166.096 185.181 165.784 185.005 165.496C184.845 165.192 184.621 164.936 184.333 164.728C184.045 164.52 183.701 164.36 183.301 164.248C182.917 164.12 182.509 164.056 182.077 164.056C180.989 164.056 180.133 164.4 179.509 165.088C178.885 165.76 178.573 166.648 178.573 167.752V169.864C178.573 170.968 178.885 171.864 179.509 172.552C180.133 173.224 180.989 173.56 182.077 173.56ZM195.95 175.288C195.118 175.288 194.358 175.136 193.67 174.832C192.982 174.528 192.39 174.096 191.894 173.536C191.414 172.96 191.038 172.28 190.766 171.496C190.494 170.696 190.358 169.8 190.358 168.808C190.358 167.832 190.494 166.944 190.766 166.144C191.038 165.344 191.414 164.664 191.894 164.104C192.39 163.528 192.982 163.088 193.67 162.784C194.358 162.48 195.118 162.328 195.95 162.328C196.782 162.328 197.534 162.48 198.206 162.784C198.894 163.088 199.486 163.528 199.982 164.104C200.478 164.664 200.862 165.344 201.134 166.144C201.406 166.944 201.542 167.832 201.542 168.808C201.542 169.8 201.406 170.696 201.134 171.496C200.862 172.28 200.478 172.96 199.982 173.536C199.486 174.096 198.894 174.528 198.206 174.832C197.534 175.136 196.782 175.288 195.95 175.288ZM195.95 173.584C196.99 173.584 197.838 173.264 198.494 172.624C199.15 171.984 199.478 171.008 199.478 169.696V167.92C199.478 166.608 199.15 165.632 198.494 164.992C197.838 164.352 196.99 164.032 195.95 164.032C194.91 164.032 194.062 164.352 193.406 164.992C192.75 165.632 192.422 166.608 192.422 167.92V169.696C192.422 171.008 192.75 171.984 193.406 172.624C194.062 173.264 194.91 173.584 195.95 173.584ZM209.308 175.288C208.444 175.288 207.668 175.136 206.98 174.832C206.292 174.528 205.708 174.096 205.228 173.536C204.764 172.976 204.404 172.296 204.148 171.496C203.908 170.696 203.788 169.8 203.788 168.808C203.788 167.816 203.908 166.92 204.148 166.12C204.404 165.32 204.764 164.64 205.228 164.08C205.708 163.52 206.292 163.088 206.98 162.784C207.668 162.48 208.444 162.328 209.308 162.328C210.54 162.328 211.524 162.6 212.26 163.144C213.012 163.672 213.572 164.368 213.94 165.232L212.332 166.048C212.108 165.408 211.74 164.912 211.228 164.56C210.716 164.208 210.076 164.032 209.308 164.032C208.732 164.032 208.228 164.128 207.796 164.32C207.364 164.496 207.004 164.752 206.716 165.088C206.428 165.408 206.212 165.8 206.068 166.264C205.924 166.712 205.852 167.208 205.852 167.752V169.864C205.852 170.952 206.14 171.848 206.716 172.552C207.308 173.24 208.172 173.584 209.308 173.584C210.86 173.584 211.98 172.864 212.668 171.424L214.06 172.36C213.66 173.256 213.06 173.968 212.26 174.496C211.476 175.024 210.492 175.288 209.308 175.288ZM221.738 161.896C222.842 161.896 223.786 162.136 224.57 162.616C225.37 163.096 225.978 163.776 226.394 164.656C226.826 165.52 227.042 166.536 227.042 167.704V168.976H218.234C218.266 170.432 218.634 171.544 219.338 172.312C220.058 173.064 221.058 173.44 222.338 173.44C223.154 173.44 223.874 173.368 224.498 173.224C225.138 173.064 225.794 172.84 226.466 172.552V174.4C225.81 174.688 225.162 174.896 224.522 175.024C223.882 175.168 223.122 175.24 222.242 175.24C221.026 175.24 219.946 174.992 219.002 174.496C218.074 174 217.346 173.264 216.818 172.288C216.306 171.296 216.05 170.088 216.05 168.664C216.05 167.256 216.282 166.048 216.746 165.04C217.226 164.032 217.89 163.256 218.738 162.712C219.602 162.168 220.602 161.896 221.738 161.896ZM221.714 163.624C220.706 163.624 219.906 163.952 219.314 164.608C218.738 165.248 218.394 166.144 218.282 167.296H224.834C224.834 166.56 224.722 165.92 224.498 165.376C224.274 164.832 223.93 164.408 223.466 164.104C223.018 163.784 222.434 163.624 221.714 163.624ZM220.97 156.616C221.146 156.968 221.362 157.368 221.618 157.816C221.89 158.248 222.17 158.672 222.458 159.088C222.762 159.504 223.034 159.864 223.274 160.168V160.456H221.858C221.586 160.232 221.282 159.968 220.946 159.664C220.61 159.344 220.274 159.016 219.938 158.68C219.618 158.328 219.322 157.992 219.05 157.672C218.794 157.352 218.594 157.08 218.45 156.856V156.616H220.97ZM230.317 175V162.616H232.237V164.632H232.333C232.637 163.928 233.061 163.368 233.605 162.952C234.165 162.536 234.909 162.328 235.837 162.328C237.117 162.328 238.125 162.744 238.861 163.576C239.613 164.392 239.989 165.552 239.989 167.056V175H238.069V167.392C238.069 165.168 237.133 164.056 235.261 164.056C234.877 164.056 234.501 164.104 234.133 164.2C233.781 164.296 233.461 164.44 233.173 164.632C232.885 164.824 232.653 165.072 232.477 165.376C232.317 165.664 232.237 166.008 232.237 166.408V175H230.317ZM248.566 175.288C247.702 175.288 246.926 175.136 246.238 174.832C245.55 174.528 244.966 174.096 244.486 173.536C244.022 172.976 243.662 172.296 243.406 171.496C243.166 170.696 243.046 169.8 243.046 168.808C243.046 167.816 243.166 166.92 243.406 166.12C243.662 165.32 244.022 164.64 244.486 164.08C244.966 163.52 245.55 163.088 246.238 162.784C246.926 162.48 247.702 162.328 248.566 162.328C249.798 162.328 250.782 162.6 251.518 163.144C252.27 163.672 252.83 164.368 253.198 165.232L251.59 166.048C251.366 165.408 250.998 164.912 250.486 164.56C249.974 164.208 249.334 164.032 248.566 164.032C247.99 164.032 247.486 164.128 247.054 164.32C246.622 164.496 246.262 164.752 245.974 165.088C245.686 165.408 245.47 165.8 245.326 166.264C245.182 166.712 245.11 167.208 245.11 167.752V169.864C245.11 170.952 245.398 171.848 245.974 172.552C246.566 173.24 247.43 173.584 248.566 173.584C250.118 173.584 251.238 172.864 251.926 171.424L253.318 172.36C252.918 173.256 252.318 173.968 251.518 174.496C250.734 175.024 249.75 175.288 248.566 175.288ZM256.988 159.712C256.572 159.712 256.268 159.616 256.076 159.424C255.9 159.216 255.812 158.952 255.812 158.632V158.32C255.812 158 255.9 157.744 256.076 157.552C256.268 157.344 256.572 157.24 256.988 157.24C257.404 157.24 257.7 157.344 257.876 157.552C258.068 157.744 258.164 158 258.164 158.32V158.632C258.164 158.952 258.068 159.216 257.876 159.424C257.7 159.616 257.404 159.712 256.988 159.712ZM256.028 162.616H257.948V175H256.028V162.616ZM271.028 175C270.308 175 269.788 174.808 269.468 174.424C269.164 174.04 268.972 173.56 268.892 172.984H268.772C268.5 173.752 268.052 174.328 267.428 174.712C266.804 175.096 266.06 175.288 265.196 175.288C263.884 175.288 262.86 174.952 262.124 174.28C261.404 173.608 261.044 172.696 261.044 171.544C261.044 170.376 261.468 169.48 262.316 168.856C263.18 168.232 264.516 167.92 266.324 167.92H268.772V166.696C268.772 165.816 268.532 165.144 268.052 164.68C267.572 164.216 266.836 163.984 265.844 163.984C265.092 163.984 264.46 164.152 263.948 164.488C263.452 164.824 263.036 165.272 262.7 165.832L261.548 164.752C261.884 164.08 262.42 163.512 263.156 163.048C263.892 162.568 264.82 162.328 265.94 162.328C267.444 162.328 268.612 162.696 269.444 163.432C270.276 164.168 270.692 165.192 270.692 166.504V173.32H272.108V175H271.028ZM265.508 173.656C265.988 173.656 266.428 173.6 266.828 173.488C267.228 173.376 267.572 173.216 267.86 173.008C268.148 172.8 268.372 172.56 268.532 172.288C268.692 172.016 268.772 171.72 268.772 171.4V169.36H266.228C265.124 169.36 264.316 169.52 263.804 169.84C263.308 170.16 263.06 170.624 263.06 171.232V171.736C263.06 172.344 263.276 172.816 263.708 173.152C264.156 173.488 264.756 173.656 265.508 173.656Z" fill="black"/>
<path d="M97.7584 143.96C97.7584 146.12 96.9318 147.747 95.2784 148.84C93.6251 149.933 90.9318 150.48 87.1984 150.48C85.4918 150.48 84.0384 150.36 82.8384 150.12C81.6651 149.907 80.6918 149.587 79.9184 149.16C79.1718 148.733 78.6251 148.213 78.2784 147.6C77.9318 146.987 77.7584 146.28 77.7584 145.48C77.7584 144.333 78.0651 143.44 78.6784 142.8C79.3184 142.16 80.1984 141.72 81.3184 141.48V141.04C79.7451 140.533 78.9584 139.467 78.9584 137.84C78.9584 136.773 79.3184 135.96 80.0384 135.4C80.7584 134.813 81.6251 134.4 82.6384 134.16V134C81.4118 133.413 80.4651 132.6 79.7984 131.56C79.1584 130.493 78.8384 129.253 78.8384 127.84C78.8384 125.707 79.5451 123.987 80.9584 122.68C82.3984 121.373 84.4518 120.72 87.1184 120.72C88.5851 120.72 89.8384 120.933 90.8784 121.36V120.8C90.8784 119.867 91.0918 119.147 91.5184 118.64C91.9718 118.107 92.6651 117.84 93.5984 117.84H96.7984V121.36H92.5584V122.2C93.4918 122.813 94.2118 123.613 94.7184 124.6C95.2251 125.56 95.4784 126.64 95.4784 127.84C95.4784 129.947 94.7584 131.653 93.3184 132.96C91.8784 134.24 89.8251 134.88 87.1584 134.88C86.1451 134.88 85.2384 134.773 84.4384 134.56C83.9051 134.747 83.4384 135.013 83.0384 135.36C82.6384 135.68 82.4384 136.107 82.4384 136.64C82.4384 137.2 82.6918 137.6 83.1984 137.84C83.7051 138.08 84.4251 138.2 85.3584 138.2H90.4784C93.0384 138.2 94.8918 138.72 96.0384 139.76C97.1851 140.773 97.7584 142.173 97.7584 143.96ZM93.6784 144.44C93.6784 143.72 93.3984 143.147 92.8384 142.72C92.3051 142.293 91.3184 142.08 89.8784 142.08H82.8384C81.8784 142.64 81.3984 143.44 81.3984 144.48C81.3984 145.333 81.7318 146.013 82.3984 146.52C83.0918 147.053 84.2518 147.32 85.8784 147.32H88.5984C91.9851 147.32 93.6784 146.36 93.6784 144.44ZM87.1584 131.72C88.4384 131.72 89.4251 131.44 90.1184 130.88C90.8384 130.293 91.1984 129.4 91.1984 128.2V127.4C91.1984 126.2 90.8384 125.32 90.1184 124.76C89.4251 124.173 88.4384 123.88 87.1584 123.88C85.8784 123.88 84.8784 124.173 84.1584 124.76C83.4651 125.32 83.1184 126.2 83.1184 127.4V128.2C83.1184 129.4 83.4651 130.293 84.1584 130.88C84.8784 131.44 85.8784 131.72 87.1584 131.72ZM108.928 142.48C107.435 142.48 106.102 142.227 104.928 141.72C103.755 141.213 102.755 140.493 101.928 139.56C101.102 138.6 100.462 137.453 100.008 136.12C99.5818 134.76 99.3684 133.253 99.3684 131.6C99.3684 129.947 99.5818 128.453 100.008 127.12C100.462 125.76 101.102 124.613 101.928 123.68C102.755 122.72 103.755 121.987 104.928 121.48C106.102 120.973 107.435 120.72 108.928 120.72C110.448 120.72 111.782 120.987 112.928 121.52C114.102 122.053 115.075 122.8 115.848 123.76C116.622 124.693 117.195 125.787 117.568 127.04C117.968 128.293 118.168 129.64 118.168 131.08V132.72H103.888V133.4C103.888 135 104.355 136.32 105.288 137.36C106.248 138.373 107.608 138.88 109.368 138.88C110.648 138.88 111.728 138.6 112.608 138.04C113.488 137.48 114.235 136.72 114.848 135.76L117.408 138.28C116.635 139.56 115.515 140.587 114.048 141.36C112.582 142.107 110.875 142.48 108.928 142.48ZM108.928 124.12C108.182 124.12 107.488 124.253 106.848 124.52C106.235 124.787 105.702 125.16 105.248 125.64C104.822 126.12 104.488 126.693 104.248 127.36C104.008 128.027 103.888 128.76 103.888 129.56V129.84H113.568V129.44C113.568 127.84 113.155 126.56 112.328 125.6C111.502 124.613 110.368 124.12 108.928 124.12ZM141.235 143.96C141.235 146.12 140.408 147.747 138.755 148.84C137.102 149.933 134.408 150.48 130.675 150.48C128.968 150.48 127.515 150.36 126.315 150.12C125.142 149.907 124.168 149.587 123.395 149.16C122.648 148.733 122.102 148.213 121.755 147.6C121.408 146.987 121.235 146.28 121.235 145.48C121.235 144.333 121.542 143.44 122.155 142.8C122.795 142.16 123.675 141.72 124.795 141.48V141.04C123.222 140.533 122.435 139.467 122.435 137.84C122.435 136.773 122.795 135.96 123.515 135.4C124.235 134.813 125.102 134.4 126.115 134.16V134C124.888 133.413 123.942 132.6 123.275 131.56C122.635 130.493 122.315 129.253 122.315 127.84C122.315 125.707 123.022 123.987 124.435 122.68C125.875 121.373 127.928 120.72 130.595 120.72C132.062 120.72 133.315 120.933 134.355 121.36V120.8C134.355 119.867 134.568 119.147 134.995 118.64C135.448 118.107 136.142 117.84 137.075 117.84H140.275V121.36H136.035V122.2C136.968 122.813 137.688 123.613 138.195 124.6C138.702 125.56 138.955 126.64 138.955 127.84C138.955 129.947 138.235 131.653 136.795 132.96C135.355 134.24 133.302 134.88 130.635 134.88C129.622 134.88 128.715 134.773 127.915 134.56C127.382 134.747 126.915 135.013 126.515 135.36C126.115 135.68 125.915 136.107 125.915 136.64C125.915 137.2 126.168 137.6 126.675 137.84C127.182 138.08 127.902 138.2 128.835 138.2H133.955C136.515 138.2 138.368 138.72 139.515 139.76C140.662 140.773 141.235 142.173 141.235 143.96ZM137.155 144.44C137.155 143.72 136.875 143.147 136.315 142.72C135.782 142.293 134.795 142.08 133.355 142.08H126.315C125.355 142.64 124.875 143.44 124.875 144.48C124.875 145.333 125.208 146.013 125.875 146.52C126.568 147.053 127.728 147.32 129.355 147.32H132.075C135.462 147.32 137.155 146.36 137.155 144.44ZM130.635 131.72C131.915 131.72 132.902 131.44 133.595 130.88C134.315 130.293 134.675 129.4 134.675 128.2V127.4C134.675 126.2 134.315 125.32 133.595 124.76C132.902 124.173 131.915 123.88 130.635 123.88C129.355 123.88 128.355 124.173 127.635 124.76C126.942 125.32 126.595 126.2 126.595 127.4V128.2C126.595 129.4 126.942 130.293 127.635 130.88C128.355 131.44 129.355 131.72 130.635 131.72ZM152.405 142.48C150.912 142.48 149.578 142.227 148.405 141.72C147.232 141.213 146.232 140.493 145.405 139.56C144.578 138.6 143.938 137.453 143.485 136.12C143.058 134.76 142.845 133.253 142.845 131.6C142.845 129.947 143.058 128.453 143.485 127.12C143.938 125.76 144.578 124.613 145.405 123.68C146.232 122.72 147.232 121.987 148.405 121.48C149.578 120.973 150.912 120.72 152.405 120.72C153.925 120.72 155.258 120.987 156.405 121.52C157.578 122.053 158.552 122.8 159.325 123.76C160.098 124.693 160.672 125.787 161.045 127.04C161.445 128.293 161.645 129.64 161.645 131.08V132.72H147.365V133.4C147.365 135 147.832 136.32 148.765 137.36C149.725 138.373 151.085 138.88 152.845 138.88C154.125 138.88 155.205 138.6 156.085 138.04C156.965 137.48 157.712 136.72 158.325 135.76L160.885 138.28C160.112 139.56 158.992 140.587 157.525 141.36C156.058 142.107 154.352 142.48 152.405 142.48ZM152.405 124.12C151.658 124.12 150.965 124.253 150.325 124.52C149.712 124.787 149.178 125.16 148.725 125.64C148.298 126.12 147.965 126.693 147.725 127.36C147.485 128.027 147.365 128.76 147.365 129.56V129.84H157.045V129.44C157.045 127.84 156.632 126.56 155.805 125.6C154.978 124.613 153.845 124.12 152.405 124.12ZM166.472 112.4H170.832V124.64H171.032C171.485 123.387 172.218 122.427 173.232 121.76C174.272 121.067 175.485 120.72 176.872 120.72C179.512 120.72 181.552 121.68 182.992 123.6C184.432 125.493 185.152 128.16 185.152 131.6C185.152 135.04 184.432 137.72 182.992 139.64C181.552 141.533 179.512 142.48 176.872 142.48C175.485 142.48 174.272 142.133 173.232 141.44C172.218 140.747 171.485 139.787 171.032 138.56H170.832V142H166.472V112.4ZM175.552 138.72C177.072 138.72 178.285 138.24 179.192 137.28C180.098 136.293 180.552 135 180.552 133.4V129.8C180.552 128.2 180.098 126.92 179.192 125.96C178.285 124.973 177.072 124.48 175.552 124.48C174.218 124.48 173.098 124.813 172.192 125.48C171.285 126.12 170.832 126.973 170.832 128.04V135.16C170.832 136.227 171.285 137.093 172.192 137.76C173.098 138.4 174.218 138.72 175.552 138.72ZM198.703 120.16C200.543 120.16 202.117 120.56 203.423 121.36C204.757 122.16 205.77 123.293 206.463 124.76C207.183 126.2 207.543 127.893 207.543 129.84V131.96H192.863C192.917 134.387 193.53 136.24 194.703 137.52C195.903 138.773 197.57 139.4 199.703 139.4C201.063 139.4 202.263 139.28 203.303 139.04C204.37 138.773 205.463 138.4 206.583 137.92V141C205.49 141.48 204.41 141.827 203.343 142.04C202.277 142.28 201.01 142.4 199.543 142.4C197.517 142.4 195.717 141.987 194.143 141.16C192.597 140.333 191.383 139.107 190.503 137.48C189.65 135.827 189.223 133.813 189.223 131.44C189.223 129.093 189.61 127.08 190.383 125.4C191.183 123.72 192.29 122.427 193.703 121.52C195.143 120.613 196.81 120.16 198.703 120.16ZM198.663 123.04C196.983 123.04 195.65 123.587 194.663 124.68C193.703 125.747 193.13 127.24 192.943 129.16H203.863C203.863 127.933 203.677 126.867 203.303 125.96C202.93 125.053 202.357 124.347 201.583 123.84C200.837 123.307 199.863 123.04 198.663 123.04ZM204.343 111.76C204.103 112.133 203.757 112.587 203.303 113.12C202.85 113.653 202.343 114.213 201.783 114.8C201.25 115.36 200.703 115.907 200.143 116.44C199.61 116.947 199.103 117.387 198.623 117.76H196.303V117.28C196.703 116.773 197.13 116.173 197.583 115.48C198.063 114.787 198.53 114.08 198.983 113.36C199.437 112.613 199.81 111.947 200.103 111.36H204.343V111.76Z" fill="#D10A1C"/>
</svg>
