<?xml version="1.0" encoding="UTF-8" standalone="no"?>
<!DOCTYPE svg PUBLIC "-//W3C//DTD SVG 1.1//EN" "http://www.w3.org/Graphics/SVG/1.1/DTD/svg11.dtd">
<svg width="273" height="185" viewBox="0 0 273 185" version="1.1" xmlns="http://www.w3.org/2000/svg" xmlns:xlink="http://www.w3.org/1999/xlink" xml:space="preserve" xmlns:serif="http://www.serif.com/" style="fill-rule:evenodd;clip-rule:evenodd;stroke-linejoin:round;stroke-miterlimit:2;">
    <path d="M54.84,135.171C45.388,125.911 41.232,111.779 44.418,98.874C44.568,98.434 44.686,97.96 44.756,97.609C44.859,97.247 44.971,96.888 45.136,96.403C46.491,93.144 48.145,89.394 50.162,84.981L60.203,63.62C60.73,62.496 61.094,61.283 61.32,59.813C61.39,59.323 61.432,58.835 61.445,58.424C61.461,58.246 61.477,58.06 61.477,57.876C61.477,57.672 61.461,57.475 61.443,57.381C61.422,56.943 61.375,56.522 61.314,56.115C61.257,55.709 61.186,55.311 61.084,54.918C60.997,54.59 60.9,54.273 60.79,53.98C60.628,53.503 60.445,53.052 60.23,52.604C60.156,52.465 60.086,52.326 59.973,52.127C57.848,48.249 53.82,45.846 49.45,45.846C42.817,45.846 37.42,51.242 37.42,57.876C37.42,62.884 40.577,67.393 45.299,69.128C45.975,69.448 46.677,69.699 47.382,69.883L43.606,77.94C42.828,77.678 41.979,77.322 41.03,76.871C35.929,74.479 32.071,70.263 30.156,64.998C28.248,59.752 28.502,54.095 30.874,49.061C34.275,41.824 41.733,37.149 49.866,37.149C52.961,37.149 55.951,37.82 58.765,39.141C69.16,44.03 73.638,56.474 68.751,66.877L66.652,71.34C62.748,79.654 58.807,88.036 54.973,96.183C53.039,100.302 52.143,104.673 52.311,109.151C52.487,115.673 54.845,121.944 58.846,126.653L54.84,135.171Z" style="fill:rgb(209,10,28);fill-rule:nonzero;"/>
    <path d="M47.317,63.892C44.756,62.98 43.027,60.562 43.027,57.876C43.027,54.338 45.909,51.461 49.45,51.461C51.763,51.461 53.909,52.748 55.049,54.826L55.188,55.085C55.306,55.316 55.398,55.554 55.489,55.827C55.547,55.984 55.597,56.149 55.644,56.312C55.689,56.516 55.725,56.718 55.762,56.946C55.796,57.174 55.822,57.404 55.827,57.598C55.833,57.7 55.843,57.797 55.854,57.902L55.833,58.172C55.827,58.452 55.801,58.727 55.751,59.063C55.623,59.894 55.371,60.554 55.075,61.18L52.686,66.35C52.686,66.35 48.407,64.408 47.317,63.892Z" style="fill:rgb(209,10,28);fill-rule:nonzero;"/>
    <path d="M62.629,118.589C59.273,112.673 58.924,105.438 61.78,99.385C66.361,89.614 70.951,79.842 75.553,70.063C78.731,63.3 79.072,55.63 76.514,48.471C73.939,41.281 68.771,35.558 61.953,32.356C58.141,30.561 54.076,29.652 49.876,29.652C38.842,29.652 28.714,36.025 24.076,45.88C20.898,52.651 20.575,60.363 23.159,67.595C25.771,74.856 30.954,80.615 37.767,83.812C38.637,84.226 39.523,84.562 40.367,84.839L36.538,92.991C35.637,92.661 34.741,92.292 33.955,91.922C15.484,83.243 7.188,60.376 15.827,41.994C21.917,29.028 35.213,20.651 49.706,20.651C55.284,20.651 60.69,21.862 65.766,24.252C84.376,33.001 92.399,55.266 83.658,73.884L62.629,118.589Z" style="fill:rgb(209,10,28);fill-rule:nonzero;"/>
    <path d="M108.065,98.341C107.056,100.513 105.68,102.492 104.016,104.171L79.01,104.171L81.329,99.245C83.462,101.074 86.216,102.135 89.122,102.135C95.762,102.135 101.155,96.74 101.155,90.105C101.155,83.471 95.762,78.075 89.122,78.075C86.856,78.075 84.631,78.728 82.849,79.868L82.485,80.077C82.338,80.177 82.194,80.284 82.066,80.394C80.326,81.618 78.929,83.298 78.028,85.239L69.184,104.171L60.94,104.171L74.702,74.9C78.612,71.194 83.882,69.075 89.245,69.075C92.18,69.075 95.034,69.696 97.733,70.914C102.798,73.202 106.663,77.336 108.612,82.559C110.557,87.765 110.357,93.37 108.065,98.341Z" style="fill:rgb(209,10,28);fill-rule:nonzero;"/>
    <path d="M80.602,93.152L83.12,87.607C83.616,86.538 84.344,85.66 85.348,84.953L85.699,84.698C86.744,84.038 87.926,83.687 89.123,83.687C92.666,83.687 95.541,86.567 95.541,90.107C95.541,93.641 92.666,96.521 89.123,96.521C89.123,96.521 88.033,96.464 85.586,95.41C84.174,94.805 80.602,93.152 80.602,93.152Z" style="fill:rgb(209,10,28);fill-rule:nonzero;"/>
    <path d="M123.848,104.17L113.419,104.17C113.951,103.292 114.436,102.391 114.86,101.463C118.005,94.679 118.275,87.038 115.633,79.956C112.987,72.841 107.728,67.208 100.828,64.087C94.385,61.176 86.912,60.874 80.243,63.099L84.737,53.542C91.626,52.859 98.606,53.967 104.41,56.671C122.36,65.025 130.973,86.446 123.848,104.17Z" style="fill:rgb(209,10,28);fill-rule:nonzero;"/>
    <path d="M119.184,72.495C117.515,70.132 115.657,67.954 113.621,65.979C116.16,63.733 117.714,60.46 117.714,56.972C117.714,50.34 112.316,44.937 105.684,44.937C99.788,44.937 94.87,49.203 93.845,54.813C91.096,54.069 88.256,53.579 85.355,53.349C85.462,52.717 85.586,52.104 85.743,51.514C85.845,51.147 85.947,50.778 86.128,50.236L86.204,50.018C87.852,45.419 90.923,41.664 95.09,39.175C96.885,38.098 98.829,37.307 101.006,36.785C101.599,36.644 102.204,36.531 102.806,36.447L103.063,36.413C103.64,36.34 104.229,36.293 104.793,36.264L105.078,36.259C105.652,36.238 106.237,36.246 106.808,36.28L107.075,36.295C107.644,36.332 108.207,36.398 108.768,36.479L109.116,36.536C109.63,36.623 110.141,36.728 110.662,36.856L111.199,36.998C111.608,37.113 112.02,37.236 112.407,37.37C112.725,37.482 113.042,37.6 113.385,37.737C113.626,37.831 113.872,37.936 114.098,38.035C114.624,38.268 115.14,38.52 115.746,38.85C125.643,44.416 129.178,56.993 123.625,66.885C122.352,69.168 120.887,71.023 119.184,72.495Z" style="fill:rgb(209,10,28);fill-rule:nonzero;"/>
    <path d="M137.945,74.903C135.058,80.055 131.119,84.295 126.206,87.541C125.462,84.722 124.445,81.968 123.169,79.308C128.979,74.604 132.731,67.702 133.59,59.912C133.672,59.129 133.729,58.348 133.742,57.583L133.753,56.996C133.758,56.286 133.735,55.573 133.687,54.852L133.645,54.323C133.575,53.555 133.483,52.79 133.355,52.025L133.318,51.823C132.731,48.48 131.599,45.361 129.956,42.555C126.987,37.495 122.53,33.554 117.085,31.167C116.839,31.057 116.595,30.957 116.189,30.795C115.738,30.617 115.293,30.439 114.863,30.297C114.244,30.082 113.626,29.891 113.026,29.728L112.596,29.616C110.314,29.023 107.961,28.727 105.6,28.727C95.462,28.727 86.086,34.233 81.131,43.095C80.358,44.476 79.708,45.904 79.182,47.358C79.137,42.681 78.388,38.014 76.941,33.517C83.917,24.92 94.576,19.829 105.739,19.829C112.015,19.829 118.238,21.453 123.733,24.53C132.291,29.32 138.488,37.244 141.179,46.842C143.867,56.417 142.715,66.382 137.945,74.903Z" style="fill:rgb(209,10,28);fill-rule:nonzero;"/>
    <path d="M104.434,59.099C106.205,60.064 107.838,61.143 109.316,62.265C109.633,62.042 109.942,61.801 110.222,61.521C112.73,59.015 112.73,54.951 110.222,52.441C107.715,49.936 103.65,49.936 101.143,52.441C99.972,53.62 99.361,55.14 99.29,56.686C100.949,57.352 102.678,58.143 104.434,59.099Z" style="fill:rgb(209,10,28);fill-rule:nonzero;"/>
    <path d="M86.151,172.984L86.055,172.984C85.303,174.52 84.095,175.288 82.431,175.288C81.663,175.288 80.967,175.136 80.343,174.832C79.719,174.528 79.183,174.096 78.735,173.536C78.303,172.976 77.967,172.296 77.727,171.496C77.503,170.696 77.391,169.8 77.391,168.808C77.391,167.816 77.503,166.92 77.727,166.12C77.967,165.32 78.303,164.64 78.735,164.08C79.183,163.52 79.719,163.088 80.343,162.784C80.967,162.48 81.663,162.328 82.431,162.328C83.295,162.328 84.031,162.52 84.639,162.904C85.263,163.272 85.735,163.848 86.055,164.632L86.151,164.632L86.151,157.24L88.071,157.24L88.071,175L86.151,175L86.151,172.984ZM82.959,173.56C83.391,173.56 83.799,173.504 84.183,173.392C84.583,173.28 84.927,173.12 85.215,172.912C85.503,172.688 85.727,172.424 85.887,172.12C86.063,171.8 86.151,171.44 86.151,171.04L86.151,166.432C86.151,166.096 86.063,165.784 85.887,165.496C85.727,165.192 85.503,164.936 85.215,164.728C84.927,164.52 84.583,164.36 84.183,164.248C83.799,164.12 83.391,164.056 82.959,164.056C81.871,164.056 81.015,164.4 80.391,165.088C79.767,165.76 79.455,166.648 79.455,167.752L79.455,169.864C79.455,170.968 79.767,171.864 80.391,172.552C81.015,173.224 81.871,173.56 82.959,173.56ZM93.113,159.712C92.697,159.712 92.393,159.616 92.201,159.424C92.025,159.216 91.937,158.952 91.937,158.632L91.937,158.32C91.937,158 92.025,157.744 92.201,157.552C92.393,157.344 92.697,157.24 93.113,157.24C93.529,157.24 93.825,157.344 94.001,157.552C94.193,157.744 94.289,158 94.289,158.32L94.289,158.632C94.289,158.952 94.193,159.216 94.001,159.424C93.825,159.616 93.529,159.712 93.113,159.712ZM92.153,162.616L94.073,162.616L94.073,175L92.153,175L92.153,162.616ZM101.873,175.288C100.721,175.288 99.753,175.072 98.969,174.64C98.201,174.192 97.537,173.6 96.977,172.864L98.345,171.76C98.825,172.368 99.361,172.84 99.953,173.176C100.545,173.496 101.233,173.656 102.017,173.656C102.833,173.656 103.465,173.48 103.913,173.128C104.377,172.776 104.609,172.28 104.609,171.64C104.609,171.16 104.449,170.752 104.129,170.416C103.825,170.064 103.265,169.824 102.449,169.696L101.465,169.552C100.889,169.472 100.361,169.352 99.881,169.192C99.401,169.016 98.977,168.792 98.609,168.52C98.257,168.232 97.977,167.88 97.769,167.464C97.577,167.048 97.481,166.552 97.481,165.976C97.481,165.368 97.593,164.84 97.817,164.392C98.041,163.928 98.345,163.544 98.729,163.24C99.129,162.936 99.601,162.712 100.145,162.568C100.689,162.408 101.273,162.328 101.897,162.328C102.905,162.328 103.745,162.504 104.417,162.856C105.105,163.208 105.705,163.696 106.217,164.32L104.945,165.472C104.673,165.088 104.273,164.744 103.745,164.44C103.217,164.12 102.553,163.96 101.753,163.96C100.953,163.96 100.345,164.136 99.929,164.488C99.529,164.824 99.329,165.288 99.329,165.88C99.329,166.488 99.529,166.928 99.929,167.2C100.345,167.472 100.937,167.672 101.705,167.8L102.665,167.944C104.041,168.152 105.017,168.552 105.593,169.144C106.169,169.72 106.457,170.48 106.457,171.424C106.457,172.624 106.049,173.568 105.233,174.256C104.417,174.944 103.297,175.288 101.873,175.288ZM113.428,175.288C112.276,175.288 111.308,175.072 110.524,174.64C109.756,174.192 109.092,173.6 108.532,172.864L109.9,171.76C110.38,172.368 110.916,172.84 111.508,173.176C112.1,173.496 112.788,173.656 113.572,173.656C114.388,173.656 115.02,173.48 115.468,173.128C115.932,172.776 116.164,172.28 116.164,171.64C116.164,171.16 116.004,170.752 115.684,170.416C115.38,170.064 114.82,169.824 114.004,169.696L113.02,169.552C112.444,169.472 111.916,169.352 111.436,169.192C110.956,169.016 110.532,168.792 110.164,168.52C109.812,168.232 109.532,167.88 109.324,167.464C109.132,167.048 109.036,166.552 109.036,165.976C109.036,165.368 109.148,164.84 109.372,164.392C109.596,163.928 109.9,163.544 110.284,163.24C110.684,162.936 111.156,162.712 111.7,162.568C112.244,162.408 112.828,162.328 113.452,162.328C114.46,162.328 115.3,162.504 115.972,162.856C116.66,163.208 117.26,163.696 117.772,164.32L116.5,165.472C116.228,165.088 115.828,164.744 115.3,164.44C114.772,164.12 114.108,163.96 113.308,163.96C112.508,163.96 111.9,164.136 111.484,164.488C111.084,164.824 110.884,165.288 110.884,165.88C110.884,166.488 111.084,166.928 111.484,167.2C111.9,167.472 112.492,167.672 113.26,167.8L114.22,167.944C115.596,168.152 116.572,168.552 117.148,169.144C117.724,169.72 118.012,170.48 118.012,171.424C118.012,172.624 117.604,173.568 116.788,174.256C115.972,174.944 114.852,175.288 113.428,175.288ZM126.059,175.288C125.211,175.288 124.443,175.136 123.755,174.832C123.083,174.528 122.499,174.096 122.003,173.536C121.523,172.96 121.147,172.28 120.875,171.496C120.619,170.696 120.491,169.8 120.491,168.808C120.491,167.832 120.619,166.944 120.875,166.144C121.147,165.344 121.523,164.664 122.003,164.104C122.499,163.528 123.083,163.088 123.755,162.784C124.443,162.48 125.211,162.328 126.059,162.328C126.891,162.328 127.635,162.48 128.291,162.784C128.947,163.088 129.507,163.512 129.971,164.056C130.435,164.584 130.787,165.216 131.027,165.952C131.283,166.688 131.411,167.496 131.411,168.376L131.411,169.288L122.507,169.288L122.507,169.864C122.507,170.392 122.587,170.888 122.747,171.352C122.923,171.8 123.163,172.192 123.467,172.528C123.787,172.864 124.171,173.128 124.619,173.32C125.083,173.512 125.603,173.608 126.179,173.608C126.963,173.608 127.643,173.424 128.219,173.056C128.811,172.688 129.267,172.16 129.587,171.472L130.955,172.456C130.555,173.304 129.931,173.992 129.083,174.52C128.235,175.032 127.227,175.288 126.059,175.288ZM126.059,163.936C125.531,163.936 125.051,164.032 124.619,164.224C124.187,164.4 123.811,164.656 123.491,164.992C123.187,165.328 122.947,165.728 122.771,166.192C122.595,166.64 122.507,167.136 122.507,167.68L122.507,167.848L129.347,167.848L129.347,167.584C129.347,166.48 129.043,165.6 128.435,164.944C127.843,164.272 127.051,163.936 126.059,163.936ZM134.575,175L134.575,162.616L136.495,162.616L136.495,164.632L136.591,164.632C136.895,163.928 137.319,163.368 137.863,162.952C138.423,162.536 139.167,162.328 140.095,162.328C141.375,162.328 142.383,162.744 143.119,163.576C143.871,164.392 144.247,165.552 144.247,167.056L144.247,175L142.327,175L142.327,167.392C142.327,165.168 141.391,164.056 139.519,164.056C139.135,164.056 138.759,164.104 138.391,164.2C138.039,164.296 137.719,164.44 137.431,164.632C137.143,164.824 136.911,165.072 136.735,165.376C136.575,165.664 136.495,166.008 136.495,166.408L136.495,175L134.575,175ZM155.66,162.616L157.556,162.616L152.012,177.88C151.868,178.248 151.724,178.552 151.58,178.792C151.436,179.048 151.26,179.248 151.052,179.392C150.844,179.536 150.58,179.64 150.26,179.704C149.956,179.768 149.58,179.8 149.132,179.8L148.148,179.8L148.148,178.12L150.092,178.12L151.028,175.48L146.396,162.616L148.316,162.616L151.292,171.04L151.868,173.056L151.988,173.056L152.66,171.04L155.66,162.616ZM166.637,159.712C166.221,159.712 165.917,159.616 165.725,159.424C165.549,159.216 165.461,158.952 165.461,158.632L165.461,158.32C165.461,158 165.549,157.744 165.725,157.552C165.917,157.344 166.221,157.24 166.637,157.24C167.053,157.24 167.349,157.344 167.525,157.552C167.717,157.744 167.813,158 167.813,158.32L167.813,158.632C167.813,158.952 167.717,159.216 167.525,159.424C167.349,159.616 167.053,159.712 166.637,159.712ZM165.677,162.616L167.597,162.616L167.597,175L165.677,175L165.677,162.616ZM185.269,172.984L185.173,172.984C184.421,174.52 183.213,175.288 181.549,175.288C180.781,175.288 180.085,175.136 179.461,174.832C178.837,174.528 178.301,174.096 177.853,173.536C177.421,172.976 177.085,172.296 176.845,171.496C176.621,170.696 176.509,169.8 176.509,168.808C176.509,167.816 176.621,166.92 176.845,166.12C177.085,165.32 177.421,164.64 177.853,164.08C178.301,163.52 178.837,163.088 179.461,162.784C180.085,162.48 180.781,162.328 181.549,162.328C182.413,162.328 183.149,162.52 183.757,162.904C184.381,163.272 184.853,163.848 185.173,164.632L185.269,164.632L185.269,157.24L187.189,157.24L187.189,175L185.269,175L185.269,172.984ZM182.077,173.56C182.509,173.56 182.917,173.504 183.301,173.392C183.701,173.28 184.045,173.12 184.333,172.912C184.621,172.688 184.845,172.424 185.005,172.12C185.181,171.8 185.269,171.44 185.269,171.04L185.269,166.432C185.269,166.096 185.181,165.784 185.005,165.496C184.845,165.192 184.621,164.936 184.333,164.728C184.045,164.52 183.701,164.36 183.301,164.248C182.917,164.12 182.509,164.056 182.077,164.056C180.989,164.056 180.133,164.4 179.509,165.088C178.885,165.76 178.573,166.648 178.573,167.752L178.573,169.864C178.573,170.968 178.885,171.864 179.509,172.552C180.133,173.224 180.989,173.56 182.077,173.56ZM195.95,175.288C195.118,175.288 194.358,175.136 193.67,174.832C192.982,174.528 192.39,174.096 191.894,173.536C191.414,172.96 191.038,172.28 190.766,171.496C190.494,170.696 190.358,169.8 190.358,168.808C190.358,167.832 190.494,166.944 190.766,166.144C191.038,165.344 191.414,164.664 191.894,164.104C192.39,163.528 192.982,163.088 193.67,162.784C194.358,162.48 195.118,162.328 195.95,162.328C196.782,162.328 197.534,162.48 198.206,162.784C198.894,163.088 199.486,163.528 199.982,164.104C200.478,164.664 200.862,165.344 201.134,166.144C201.406,166.944 201.542,167.832 201.542,168.808C201.542,169.8 201.406,170.696 201.134,171.496C200.862,172.28 200.478,172.96 199.982,173.536C199.486,174.096 198.894,174.528 198.206,174.832C197.534,175.136 196.782,175.288 195.95,175.288ZM195.95,173.584C196.99,173.584 197.838,173.264 198.494,172.624C199.15,171.984 199.478,171.008 199.478,169.696L199.478,167.92C199.478,166.608 199.15,165.632 198.494,164.992C197.838,164.352 196.99,164.032 195.95,164.032C194.91,164.032 194.062,164.352 193.406,164.992C192.75,165.632 192.422,166.608 192.422,167.92L192.422,169.696C192.422,171.008 192.75,171.984 193.406,172.624C194.062,173.264 194.91,173.584 195.95,173.584ZM209.308,175.288C208.444,175.288 207.668,175.136 206.98,174.832C206.292,174.528 205.708,174.096 205.228,173.536C204.764,172.976 204.404,172.296 204.148,171.496C203.908,170.696 203.788,169.8 203.788,168.808C203.788,167.816 203.908,166.92 204.148,166.12C204.404,165.32 204.764,164.64 205.228,164.08C205.708,163.52 206.292,163.088 206.98,162.784C207.668,162.48 208.444,162.328 209.308,162.328C210.54,162.328 211.524,162.6 212.26,163.144C213.012,163.672 213.572,164.368 213.94,165.232L212.332,166.048C212.108,165.408 211.74,164.912 211.228,164.56C210.716,164.208 210.076,164.032 209.308,164.032C208.732,164.032 208.228,164.128 207.796,164.32C207.364,164.496 207.004,164.752 206.716,165.088C206.428,165.408 206.212,165.8 206.068,166.264C205.924,166.712 205.852,167.208 205.852,167.752L205.852,169.864C205.852,170.952 206.14,171.848 206.716,172.552C207.308,173.24 208.172,173.584 209.308,173.584C210.86,173.584 211.98,172.864 212.668,171.424L214.06,172.36C213.66,173.256 213.06,173.968 212.26,174.496C211.476,175.024 210.492,175.288 209.308,175.288ZM221.738,161.896C222.842,161.896 223.786,162.136 224.57,162.616C225.37,163.096 225.978,163.776 226.394,164.656C226.826,165.52 227.042,166.536 227.042,167.704L227.042,168.976L218.234,168.976C218.266,170.432 218.634,171.544 219.338,172.312C220.058,173.064 221.058,173.44 222.338,173.44C223.154,173.44 223.874,173.368 224.498,173.224C225.138,173.064 225.794,172.84 226.466,172.552L226.466,174.4C225.81,174.688 225.162,174.896 224.522,175.024C223.882,175.168 223.122,175.24 222.242,175.24C221.026,175.24 219.946,174.992 219.002,174.496C218.074,174 217.346,173.264 216.818,172.288C216.306,171.296 216.05,170.088 216.05,168.664C216.05,167.256 216.282,166.048 216.746,165.04C217.226,164.032 217.89,163.256 218.738,162.712C219.602,162.168 220.602,161.896 221.738,161.896ZM221.714,163.624C220.706,163.624 219.906,163.952 219.314,164.608C218.738,165.248 218.394,166.144 218.282,167.296L224.834,167.296C224.834,166.56 224.722,165.92 224.498,165.376C224.274,164.832 223.93,164.408 223.466,164.104C223.018,163.784 222.434,163.624 221.714,163.624ZM220.97,156.616C221.146,156.968 221.362,157.368 221.618,157.816C221.89,158.248 222.17,158.672 222.458,159.088C222.762,159.504 223.034,159.864 223.274,160.168L223.274,160.456L221.858,160.456C221.586,160.232 221.282,159.968 220.946,159.664C220.61,159.344 220.274,159.016 219.938,158.68C219.618,158.328 219.322,157.992 219.05,157.672C218.794,157.352 218.594,157.08 218.45,156.856L218.45,156.616L220.97,156.616ZM230.317,175L230.317,162.616L232.237,162.616L232.237,164.632L232.333,164.632C232.637,163.928 233.061,163.368 233.605,162.952C234.165,162.536 234.909,162.328 235.837,162.328C237.117,162.328 238.125,162.744 238.861,163.576C239.613,164.392 239.989,165.552 239.989,167.056L239.989,175L238.069,175L238.069,167.392C238.069,165.168 237.133,164.056 235.261,164.056C234.877,164.056 234.501,164.104 234.133,164.2C233.781,164.296 233.461,164.44 233.173,164.632C232.885,164.824 232.653,165.072 232.477,165.376C232.317,165.664 232.237,166.008 232.237,166.408L232.237,175L230.317,175ZM248.566,175.288C247.702,175.288 246.926,175.136 246.238,174.832C245.55,174.528 244.966,174.096 244.486,173.536C244.022,172.976 243.662,172.296 243.406,171.496C243.166,170.696 243.046,169.8 243.046,168.808C243.046,167.816 243.166,166.92 243.406,166.12C243.662,165.32 244.022,164.64 244.486,164.08C244.966,163.52 245.55,163.088 246.238,162.784C246.926,162.48 247.702,162.328 248.566,162.328C249.798,162.328 250.782,162.6 251.518,163.144C252.27,163.672 252.83,164.368 253.198,165.232L251.59,166.048C251.366,165.408 250.998,164.912 250.486,164.56C249.974,164.208 249.334,164.032 248.566,164.032C247.99,164.032 247.486,164.128 247.054,164.32C246.622,164.496 246.262,164.752 245.974,165.088C245.686,165.408 245.47,165.8 245.326,166.264C245.182,166.712 245.11,167.208 245.11,167.752L245.11,169.864C245.11,170.952 245.398,171.848 245.974,172.552C246.566,173.24 247.43,173.584 248.566,173.584C250.118,173.584 251.238,172.864 251.926,171.424L253.318,172.36C252.918,173.256 252.318,173.968 251.518,174.496C250.734,175.024 249.75,175.288 248.566,175.288ZM256.988,159.712C256.572,159.712 256.268,159.616 256.076,159.424C255.9,159.216 255.812,158.952 255.812,158.632L255.812,158.32C255.812,158 255.9,157.744 256.076,157.552C256.268,157.344 256.572,157.24 256.988,157.24C257.404,157.24 257.7,157.344 257.876,157.552C258.068,157.744 258.164,158 258.164,158.32L258.164,158.632C258.164,158.952 258.068,159.216 257.876,159.424C257.7,159.616 257.404,159.712 256.988,159.712ZM256.028,162.616L257.948,162.616L257.948,175L256.028,175L256.028,162.616ZM271.028,175C270.308,175 269.788,174.808 269.468,174.424C269.164,174.04 268.972,173.56 268.892,172.984L268.772,172.984C268.5,173.752 268.052,174.328 267.428,174.712C266.804,175.096 266.06,175.288 265.196,175.288C263.884,175.288 262.86,174.952 262.124,174.28C261.404,173.608 261.044,172.696 261.044,171.544C261.044,170.376 261.468,169.48 262.316,168.856C263.18,168.232 264.516,167.92 266.324,167.92L268.772,167.92L268.772,166.696C268.772,165.816 268.532,165.144 268.052,164.68C267.572,164.216 266.836,163.984 265.844,163.984C265.092,163.984 264.46,164.152 263.948,164.488C263.452,164.824 263.036,165.272 262.7,165.832L261.548,164.752C261.884,164.08 262.42,163.512 263.156,163.048C263.892,162.568 264.82,162.328 265.94,162.328C267.444,162.328 268.612,162.696 269.444,163.432C270.276,164.168 270.692,165.192 270.692,166.504L270.692,173.32L272.108,173.32L272.108,175L271.028,175ZM265.508,173.656C265.988,173.656 266.428,173.6 266.828,173.488C267.228,173.376 267.572,173.216 267.86,173.008C268.148,172.8 268.372,172.56 268.532,172.288C268.692,172.016 268.772,171.72 268.772,171.4L268.772,169.36L266.228,169.36C265.124,169.36 264.316,169.52 263.804,169.84C263.308,170.16 263.06,170.624 263.06,171.232L263.06,171.736C263.06,172.344 263.276,172.816 263.708,173.152C264.156,173.488 264.756,173.656 265.508,173.656Z" style="fill-rule:nonzero;"/>
    <path d="M97.758,143.96C97.758,146.12 96.932,147.747 95.278,148.84C93.625,149.933 90.932,150.48 87.198,150.48C85.492,150.48 84.038,150.36 82.838,150.12C81.665,149.907 80.692,149.587 79.918,149.16C79.172,148.733 78.625,148.213 78.278,147.6C77.932,146.987 77.758,146.28 77.758,145.48C77.758,144.333 78.065,143.44 78.678,142.8C79.318,142.16 80.198,141.72 81.318,141.48L81.318,141.04C79.745,140.533 78.958,139.467 78.958,137.84C78.958,136.773 79.318,135.96 80.038,135.4C80.758,134.813 81.625,134.4 82.638,134.16L82.638,134C81.412,133.413 80.465,132.6 79.798,131.56C79.158,130.493 78.838,129.253 78.838,127.84C78.838,125.707 79.545,123.987 80.958,122.68C82.398,121.373 84.452,120.72 87.118,120.72C88.585,120.72 89.838,120.933 90.878,121.36L90.878,120.8C90.878,119.867 91.092,119.147 91.518,118.64C91.972,118.107 92.665,117.84 93.598,117.84L96.798,117.84L96.798,121.36L92.558,121.36L92.558,122.2C93.492,122.813 94.212,123.613 94.718,124.6C95.225,125.56 95.478,126.64 95.478,127.84C95.478,129.947 94.758,131.653 93.318,132.96C91.878,134.24 89.825,134.88 87.158,134.88C86.145,134.88 85.238,134.773 84.438,134.56C83.905,134.747 83.438,135.013 83.038,135.36C82.638,135.68 82.438,136.107 82.438,136.64C82.438,137.2 82.692,137.6 83.198,137.84C83.705,138.08 84.425,138.2 85.358,138.2L90.478,138.2C93.038,138.2 94.892,138.72 96.038,139.76C97.185,140.773 97.758,142.173 97.758,143.96ZM141.235,143.96C141.235,146.12 140.408,147.747 138.755,148.84C137.102,149.933 134.408,150.48 130.675,150.48C128.968,150.48 127.515,150.36 126.315,150.12C125.142,149.907 124.168,149.587 123.395,149.16C122.648,148.733 122.102,148.213 121.755,147.6C121.408,146.987 121.235,146.28 121.235,145.48C121.235,144.333 121.542,143.44 122.155,142.8C122.795,142.16 123.675,141.72 124.795,141.48L124.795,141.04C123.222,140.533 122.435,139.467 122.435,137.84C122.435,136.773 122.795,135.96 123.515,135.4C124.235,134.813 125.102,134.4 126.115,134.16L126.115,134C124.888,133.413 123.942,132.6 123.275,131.56C122.635,130.493 122.315,129.253 122.315,127.84C122.315,125.707 123.022,123.987 124.435,122.68C125.875,121.373 127.928,120.72 130.595,120.72C132.062,120.72 133.315,120.933 134.355,121.36L134.355,120.8C134.355,119.867 134.568,119.147 134.995,118.64C135.448,118.107 136.142,117.84 137.075,117.84L140.275,117.84L140.275,121.36L136.035,121.36L136.035,122.2C136.968,122.813 137.688,123.613 138.195,124.6C138.702,125.56 138.955,126.64 138.955,127.84C138.955,129.947 138.235,131.653 136.795,132.96C135.355,134.24 133.302,134.88 130.635,134.88C129.622,134.88 128.715,134.773 127.915,134.56C127.382,134.747 126.915,135.013 126.515,135.36C126.115,135.68 125.915,136.107 125.915,136.64C125.915,137.2 126.168,137.6 126.675,137.84C127.182,138.08 127.902,138.2 128.835,138.2L133.955,138.2C136.515,138.2 138.368,138.72 139.515,139.76C140.662,140.773 141.235,142.173 141.235,143.96ZM93.678,144.44C93.678,143.72 93.398,143.147 92.838,142.72C92.305,142.293 91.318,142.08 89.878,142.08L82.838,142.08C81.878,142.64 81.398,143.44 81.398,144.48C81.398,145.333 81.732,146.013 82.398,146.52C83.092,147.053 84.252,147.32 85.878,147.32L88.598,147.32C91.985,147.32 93.678,146.36 93.678,144.44ZM137.155,144.44C137.155,143.72 136.875,143.147 136.315,142.72C135.782,142.293 134.795,142.08 133.355,142.08L126.315,142.08C125.355,142.64 124.875,143.44 124.875,144.48C124.875,145.333 125.208,146.013 125.875,146.52C126.568,147.053 127.728,147.32 129.355,147.32L132.075,147.32C135.462,147.32 137.155,146.36 137.155,144.44ZM166.472,112.4L170.832,112.4L170.832,124.64L171.032,124.64C171.485,123.387 172.218,122.427 173.232,121.76C174.272,121.067 175.485,120.72 176.872,120.72C179.512,120.72 181.552,121.68 182.992,123.6C184.432,125.493 185.152,128.16 185.152,131.6C185.152,135.04 184.432,137.72 182.992,139.64C181.552,141.533 179.512,142.48 176.872,142.48C175.485,142.48 174.272,142.133 173.232,141.44C172.218,140.747 171.485,139.787 171.032,138.56L170.832,138.56L170.832,142L166.472,142L166.472,112.4ZM108.928,142.48C107.435,142.48 106.102,142.227 104.928,141.72C103.755,141.213 102.755,140.493 101.928,139.56C101.102,138.6 100.462,137.453 100.008,136.12C99.582,134.76 99.368,133.253 99.368,131.6C99.368,129.947 99.582,128.453 100.008,127.12C100.462,125.76 101.102,124.613 101.928,123.68C102.755,122.72 103.755,121.987 104.928,121.48C106.102,120.973 107.435,120.72 108.928,120.72C110.448,120.72 111.782,120.987 112.928,121.52C114.102,122.053 115.075,122.8 115.848,123.76C116.622,124.693 117.195,125.787 117.568,127.04C117.968,128.293 118.168,129.64 118.168,131.08L118.168,132.72L103.888,132.72L103.888,133.4C103.888,135 104.355,136.32 105.288,137.36C106.248,138.373 107.608,138.88 109.368,138.88C110.648,138.88 111.728,138.6 112.608,138.04C113.488,137.48 114.235,136.72 114.848,135.76L117.408,138.28C116.635,139.56 115.515,140.587 114.048,141.36C112.582,142.107 110.875,142.48 108.928,142.48ZM152.405,142.48C150.912,142.48 149.578,142.227 148.405,141.72C147.232,141.213 146.232,140.493 145.405,139.56C144.578,138.6 143.938,137.453 143.485,136.12C143.058,134.76 142.845,133.253 142.845,131.6C142.845,129.947 143.058,128.453 143.485,127.12C143.938,125.76 144.578,124.613 145.405,123.68C146.232,122.72 147.232,121.987 148.405,121.48C149.578,120.973 150.912,120.72 152.405,120.72C153.925,120.72 155.258,120.987 156.405,121.52C157.578,122.053 158.552,122.8 159.325,123.76C160.098,124.693 160.672,125.787 161.045,127.04C161.445,128.293 161.645,129.64 161.645,131.08L161.645,132.72L147.365,132.72L147.365,133.4C147.365,135 147.832,136.32 148.765,137.36C149.725,138.373 151.085,138.88 152.845,138.88C154.125,138.88 155.205,138.6 156.085,138.04C156.965,137.48 157.712,136.72 158.325,135.76L160.885,138.28C160.112,139.56 158.992,140.587 157.525,141.36C156.058,142.107 154.352,142.48 152.405,142.48ZM202.103,121.243L202.103,120.8C202.103,119.867 202.316,119.147 202.743,118.64C203.196,118.107 203.89,117.84 204.823,117.84L208.023,117.84L208.023,121.36L203.783,121.36L203.783,122.056C204.521,122.519 205.161,123.087 205.703,123.76C206.476,124.693 207.05,125.787 207.423,127.04C207.823,128.293 208.023,129.64 208.023,131.08L208.023,132.72L193.743,132.72L193.743,133.4C193.743,135 194.21,136.32 195.143,137.36C196.103,138.373 197.463,138.88 199.223,138.88C200.503,138.88 201.583,138.6 202.463,138.04C203.343,137.48 204.09,136.72 204.703,135.76L207.263,138.28C206.49,139.56 205.37,140.587 203.903,141.36C202.436,142.107 200.73,142.48 198.783,142.48C197.29,142.48 195.956,142.227 194.783,141.72C193.61,141.213 192.61,140.493 191.783,139.56C190.956,138.6 190.316,137.453 189.863,136.12C189.436,134.76 189.223,133.253 189.223,131.6C189.223,129.947 189.436,128.453 189.863,127.12C190.316,125.76 190.956,124.613 191.783,123.68C192.61,122.72 193.61,121.987 194.783,121.48C195.956,120.973 197.29,120.72 198.783,120.72C200.012,120.72 201.118,120.894 202.103,121.243ZM175.552,138.72C177.072,138.72 178.285,138.24 179.192,137.28C180.098,136.293 180.552,135 180.552,133.4L180.552,129.8C180.552,128.2 180.098,126.92 179.192,125.96C178.285,124.973 177.072,124.48 175.552,124.48C174.218,124.48 173.098,124.813 172.192,125.48C171.285,126.12 170.832,126.973 170.832,128.04L170.832,135.16C170.832,136.227 171.285,137.093 172.192,137.76C173.098,138.4 174.218,138.72 175.552,138.72ZM87.158,131.72C88.438,131.72 89.425,131.44 90.118,130.88C90.838,130.293 91.198,129.4 91.198,128.2L91.198,127.4C91.198,126.2 90.838,125.32 90.118,124.76C89.425,124.173 88.438,123.88 87.158,123.88C85.878,123.88 84.878,124.173 84.158,124.76C83.465,125.32 83.118,126.2 83.118,127.4L83.118,128.2C83.118,129.4 83.465,130.293 84.158,130.88C84.878,131.44 85.878,131.72 87.158,131.72ZM130.635,131.72C131.915,131.72 132.902,131.44 133.595,130.88C134.315,130.293 134.675,129.4 134.675,128.2L134.675,127.4C134.675,126.2 134.315,125.32 133.595,124.76C132.902,124.173 131.915,123.88 130.635,123.88C129.355,123.88 128.355,124.173 127.635,124.76C126.942,125.32 126.595,126.2 126.595,127.4L126.595,128.2C126.595,129.4 126.942,130.293 127.635,130.88C128.355,131.44 129.355,131.72 130.635,131.72ZM108.928,124.12C108.182,124.12 107.488,124.253 106.848,124.52C106.235,124.787 105.702,125.16 105.248,125.64C104.822,126.12 104.488,126.693 104.248,127.36C104.008,128.027 103.888,128.76 103.888,129.56L103.888,129.84L113.568,129.84L113.568,129.44C113.568,127.84 113.155,126.56 112.328,125.6C111.502,124.613 110.368,124.12 108.928,124.12ZM152.405,124.12C151.658,124.12 150.965,124.253 150.325,124.52C149.712,124.787 149.178,125.16 148.725,125.64C148.298,126.12 147.965,126.693 147.725,127.36C147.485,128.027 147.365,128.76 147.365,129.56L147.365,129.84L157.045,129.84L157.045,129.44C157.045,127.84 156.632,126.56 155.805,125.6C154.978,124.613 153.845,124.12 152.405,124.12ZM198.783,124.12C198.036,124.12 197.343,124.253 196.703,124.52C196.09,124.787 195.556,125.16 195.103,125.64C194.676,126.12 194.343,126.693 194.103,127.36C193.863,128.027 193.743,128.76 193.743,129.56L193.743,129.84L203.423,129.84L203.423,129.44C203.423,127.84 203.01,126.56 202.183,125.6C201.356,124.613 200.223,124.12 198.783,124.12Z" style="fill:rgb(209,10,28);"/>
</svg>
